<mxfile host="Electron" modified="2023-11-06T17:54:32.490Z" agent="Mozilla/5.0 (Windows NT 10.0; Win64; x64) AppleWebKit/537.36 (KHTML, like Gecko) draw.io/22.0.3 Chrome/114.0.5735.289 Electron/25.8.4 Safari/537.36" etag="uuqts9MX0zMWiZef_bJv" version="22.0.3" type="device">
  <diagram name="Page-1" id="mxMfrpkYQ83yEpC6DAqX">
    <mxGraphModel dx="1036" dy="606" grid="1" gridSize="10" guides="1" tooltips="1" connect="1" arrows="1" fold="1" page="1" pageScale="1" pageWidth="850" pageHeight="1100" math="0" shadow="0">
      <root>
        <mxCell id="0" />
        <mxCell id="1" parent="0" />
        <mxCell id="lJAiufSAKZCCp05Ln1A2-4" style="edgeStyle=orthogonalEdgeStyle;rounded=0;orthogonalLoop=1;jettySize=auto;html=1;exitX=0.5;exitY=1;exitDx=0;exitDy=0;entryX=0.5;entryY=0;entryDx=0;entryDy=0;" edge="1" parent="1" source="lJAiufSAKZCCp05Ln1A2-1" target="lJAiufSAKZCCp05Ln1A2-2">
          <mxGeometry relative="1" as="geometry" />
        </mxCell>
        <mxCell id="lJAiufSAKZCCp05Ln1A2-1" value="START" style="ellipse;whiteSpace=wrap;html=1;" vertex="1" parent="1">
          <mxGeometry x="365" y="100" width="120" height="80" as="geometry" />
        </mxCell>
        <mxCell id="lJAiufSAKZCCp05Ln1A2-5" style="edgeStyle=orthogonalEdgeStyle;rounded=0;orthogonalLoop=1;jettySize=auto;html=1;exitX=0.5;exitY=1;exitDx=0;exitDy=0;entryX=0.5;entryY=0;entryDx=0;entryDy=0;" edge="1" parent="1" source="lJAiufSAKZCCp05Ln1A2-2" target="lJAiufSAKZCCp05Ln1A2-3">
          <mxGeometry relative="1" as="geometry" />
        </mxCell>
        <mxCell id="lJAiufSAKZCCp05Ln1A2-2" value="a,b,c" style="shape=parallelogram;perimeter=parallelogramPerimeter;whiteSpace=wrap;html=1;fixedSize=1;" vertex="1" parent="1">
          <mxGeometry x="365" y="210" width="120" height="60" as="geometry" />
        </mxCell>
        <mxCell id="lJAiufSAKZCCp05Ln1A2-7" value="" style="edgeStyle=orthogonalEdgeStyle;rounded=0;orthogonalLoop=1;jettySize=auto;html=1;" edge="1" parent="1" source="lJAiufSAKZCCp05Ln1A2-3" target="lJAiufSAKZCCp05Ln1A2-6">
          <mxGeometry relative="1" as="geometry" />
        </mxCell>
        <mxCell id="lJAiufSAKZCCp05Ln1A2-30" style="edgeStyle=orthogonalEdgeStyle;rounded=0;orthogonalLoop=1;jettySize=auto;html=1;exitX=0;exitY=0.5;exitDx=0;exitDy=0;entryX=1;entryY=0.5;entryDx=0;entryDy=0;" edge="1" parent="1" source="lJAiufSAKZCCp05Ln1A2-3" target="lJAiufSAKZCCp05Ln1A2-29">
          <mxGeometry relative="1" as="geometry" />
        </mxCell>
        <mxCell id="lJAiufSAKZCCp05Ln1A2-3" value="a=0" style="rhombus;whiteSpace=wrap;html=1;" vertex="1" parent="1">
          <mxGeometry x="370" y="310" width="110" height="70" as="geometry" />
        </mxCell>
        <mxCell id="lJAiufSAKZCCp05Ln1A2-6" value="Phương trình bậc 1" style="whiteSpace=wrap;html=1;" vertex="1" parent="1">
          <mxGeometry x="520" y="320" width="110" height="50" as="geometry" />
        </mxCell>
        <mxCell id="lJAiufSAKZCCp05Ln1A2-8" value="b=0" style="rhombus;whiteSpace=wrap;html=1;" vertex="1" parent="1">
          <mxGeometry x="630" y="420" width="100" height="60" as="geometry" />
        </mxCell>
        <mxCell id="lJAiufSAKZCCp05Ln1A2-9" value="" style="endArrow=classic;html=1;rounded=0;exitX=1;exitY=0.5;exitDx=0;exitDy=0;entryX=0.5;entryY=0;entryDx=0;entryDy=0;" edge="1" parent="1" source="lJAiufSAKZCCp05Ln1A2-6" target="lJAiufSAKZCCp05Ln1A2-8">
          <mxGeometry width="50" height="50" relative="1" as="geometry">
            <mxPoint x="640" y="340" as="sourcePoint" />
            <mxPoint x="690" y="290" as="targetPoint" />
            <Array as="points">
              <mxPoint x="680" y="345" />
            </Array>
          </mxGeometry>
        </mxCell>
        <mxCell id="lJAiufSAKZCCp05Ln1A2-10" value="Vô số nghiệm" style="shape=parallelogram;perimeter=parallelogramPerimeter;whiteSpace=wrap;html=1;fixedSize=1;" vertex="1" parent="1">
          <mxGeometry x="660" y="610" width="100" height="40" as="geometry" />
        </mxCell>
        <mxCell id="lJAiufSAKZCCp05Ln1A2-11" value="" style="endArrow=classic;html=1;rounded=0;exitX=0;exitY=0.5;exitDx=0;exitDy=0;entryX=0.5;entryY=0;entryDx=0;entryDy=0;" edge="1" parent="1" source="lJAiufSAKZCCp05Ln1A2-14" target="lJAiufSAKZCCp05Ln1A2-10">
          <mxGeometry width="50" height="50" relative="1" as="geometry">
            <mxPoint x="690" y="550.92" as="sourcePoint" />
            <mxPoint x="618.4000000000001" y="609.9999999999999" as="targetPoint" />
            <Array as="points">
              <mxPoint x="710" y="550" />
            </Array>
          </mxGeometry>
        </mxCell>
        <mxCell id="lJAiufSAKZCCp05Ln1A2-12" value="vô nghiệm" style="shape=parallelogram;perimeter=parallelogramPerimeter;whiteSpace=wrap;html=1;fixedSize=1;" vertex="1" parent="1">
          <mxGeometry x="790" y="610" width="90" height="40" as="geometry" />
        </mxCell>
        <mxCell id="lJAiufSAKZCCp05Ln1A2-13" value="" style="endArrow=classic;html=1;rounded=0;entryX=0.5;entryY=0;entryDx=0;entryDy=0;exitX=1;exitY=0.5;exitDx=0;exitDy=0;" edge="1" parent="1" source="lJAiufSAKZCCp05Ln1A2-14">
          <mxGeometry width="50" height="50" relative="1" as="geometry">
            <mxPoint x="830" y="550" as="sourcePoint" />
            <mxPoint x="850" y="610" as="targetPoint" />
            <Array as="points">
              <mxPoint x="850" y="550" />
            </Array>
          </mxGeometry>
        </mxCell>
        <mxCell id="lJAiufSAKZCCp05Ln1A2-15" value="" style="endArrow=classic;html=1;rounded=0;entryX=0.5;entryY=0;entryDx=0;entryDy=0;exitX=0.5;exitY=1;exitDx=0;exitDy=0;" edge="1" parent="1" source="lJAiufSAKZCCp05Ln1A2-8" target="lJAiufSAKZCCp05Ln1A2-14">
          <mxGeometry width="50" height="50" relative="1" as="geometry">
            <mxPoint x="400" y="540" as="sourcePoint" />
            <mxPoint x="450" y="490" as="targetPoint" />
            <Array as="points">
              <mxPoint x="780" y="480" />
            </Array>
          </mxGeometry>
        </mxCell>
        <mxCell id="lJAiufSAKZCCp05Ln1A2-16" value="sai" style="text;html=1;align=center;verticalAlign=middle;resizable=0;points=[];autosize=1;strokeColor=none;fillColor=none;" vertex="1" parent="1">
          <mxGeometry x="815" y="520" width="40" height="30" as="geometry" />
        </mxCell>
        <mxCell id="lJAiufSAKZCCp05Ln1A2-17" value="đúng" style="text;html=1;align=center;verticalAlign=middle;resizable=0;points=[];autosize=1;strokeColor=none;fillColor=none;" vertex="1" parent="1">
          <mxGeometry x="700" y="530" width="50" height="30" as="geometry" />
        </mxCell>
        <mxCell id="lJAiufSAKZCCp05Ln1A2-20" value="" style="endArrow=classic;html=1;rounded=0;entryX=0.5;entryY=0;entryDx=0;entryDy=0;exitX=1;exitY=0.5;exitDx=0;exitDy=0;" edge="1" parent="1" target="lJAiufSAKZCCp05Ln1A2-14">
          <mxGeometry width="50" height="50" relative="1" as="geometry">
            <mxPoint x="770" y="550" as="sourcePoint" />
            <mxPoint x="830" y="610" as="targetPoint" />
            <Array as="points" />
          </mxGeometry>
        </mxCell>
        <mxCell id="lJAiufSAKZCCp05Ln1A2-14" value="c=0" style="rhombus;whiteSpace=wrap;html=1;" vertex="1" parent="1">
          <mxGeometry x="740" y="520" width="80" height="60" as="geometry" />
        </mxCell>
        <mxCell id="lJAiufSAKZCCp05Ln1A2-21" value="Đúng" style="text;html=1;align=center;verticalAlign=middle;resizable=0;points=[];autosize=1;strokeColor=none;fillColor=none;" vertex="1" parent="1">
          <mxGeometry x="725" y="448" width="50" height="30" as="geometry" />
        </mxCell>
        <mxCell id="lJAiufSAKZCCp05Ln1A2-23" value="x= -b/a" style="shape=parallelogram;perimeter=parallelogramPerimeter;whiteSpace=wrap;html=1;fixedSize=1;" vertex="1" parent="1">
          <mxGeometry x="560" y="550" width="90" height="40" as="geometry" />
        </mxCell>
        <mxCell id="lJAiufSAKZCCp05Ln1A2-24" value="" style="endArrow=classic;html=1;rounded=0;entryX=0.56;entryY=-0.017;entryDx=0;entryDy=0;entryPerimeter=0;exitX=0;exitY=0.5;exitDx=0;exitDy=0;" edge="1" parent="1" source="lJAiufSAKZCCp05Ln1A2-8" target="lJAiufSAKZCCp05Ln1A2-23">
          <mxGeometry width="50" height="50" relative="1" as="geometry">
            <mxPoint x="400" y="640" as="sourcePoint" />
            <mxPoint x="450" y="590" as="targetPoint" />
            <Array as="points">
              <mxPoint x="610" y="450" />
            </Array>
          </mxGeometry>
        </mxCell>
        <mxCell id="lJAiufSAKZCCp05Ln1A2-54" style="edgeStyle=orthogonalEdgeStyle;rounded=0;orthogonalLoop=1;jettySize=auto;html=1;exitX=0.5;exitY=1;exitDx=0;exitDy=0;entryX=0.5;entryY=0;entryDx=0;entryDy=0;" edge="1" parent="1" source="lJAiufSAKZCCp05Ln1A2-25" target="lJAiufSAKZCCp05Ln1A2-53">
          <mxGeometry relative="1" as="geometry" />
        </mxCell>
        <mxCell id="lJAiufSAKZCCp05Ln1A2-25" value="Nghiệm" style="shape=parallelogram;perimeter=parallelogramPerimeter;whiteSpace=wrap;html=1;fixedSize=1;" vertex="1" parent="1">
          <mxGeometry x="425" y="690" width="120" height="60" as="geometry" />
        </mxCell>
        <mxCell id="lJAiufSAKZCCp05Ln1A2-26" value="" style="endArrow=classic;html=1;rounded=0;entryX=0.625;entryY=-0.05;entryDx=0;entryDy=0;entryPerimeter=0;exitX=0;exitY=0.5;exitDx=0;exitDy=0;" edge="1" parent="1" source="lJAiufSAKZCCp05Ln1A2-23" target="lJAiufSAKZCCp05Ln1A2-25">
          <mxGeometry width="50" height="50" relative="1" as="geometry">
            <mxPoint x="510" y="650" as="sourcePoint" />
            <mxPoint x="560" y="600" as="targetPoint" />
            <Array as="points">
              <mxPoint x="500" y="570" />
            </Array>
          </mxGeometry>
        </mxCell>
        <mxCell id="lJAiufSAKZCCp05Ln1A2-27" value="" style="endArrow=classic;html=1;rounded=0;entryX=1;entryY=0.5;entryDx=0;entryDy=0;exitX=0.5;exitY=1;exitDx=0;exitDy=0;" edge="1" parent="1" source="lJAiufSAKZCCp05Ln1A2-10" target="lJAiufSAKZCCp05Ln1A2-25">
          <mxGeometry width="50" height="50" relative="1" as="geometry">
            <mxPoint x="650" y="750" as="sourcePoint" />
            <mxPoint x="700" y="700" as="targetPoint" />
            <Array as="points">
              <mxPoint x="710" y="720" />
            </Array>
          </mxGeometry>
        </mxCell>
        <mxCell id="lJAiufSAKZCCp05Ln1A2-28" value="Đúng" style="text;html=1;align=center;verticalAlign=middle;resizable=0;points=[];autosize=1;strokeColor=none;fillColor=none;" vertex="1" parent="1">
          <mxGeometry x="470" y="320" width="50" height="30" as="geometry" />
        </mxCell>
        <mxCell id="lJAiufSAKZCCp05Ln1A2-38" style="edgeStyle=orthogonalEdgeStyle;rounded=0;orthogonalLoop=1;jettySize=auto;html=1;exitX=0.5;exitY=1;exitDx=0;exitDy=0;entryX=0.5;entryY=0;entryDx=0;entryDy=0;" edge="1" parent="1" source="lJAiufSAKZCCp05Ln1A2-29" target="lJAiufSAKZCCp05Ln1A2-36">
          <mxGeometry relative="1" as="geometry" />
        </mxCell>
        <mxCell id="lJAiufSAKZCCp05Ln1A2-39" style="edgeStyle=orthogonalEdgeStyle;rounded=0;orthogonalLoop=1;jettySize=auto;html=1;exitX=1;exitY=1;exitDx=0;exitDy=0;entryX=0.5;entryY=0;entryDx=0;entryDy=0;" edge="1" parent="1" source="lJAiufSAKZCCp05Ln1A2-29" target="lJAiufSAKZCCp05Ln1A2-37">
          <mxGeometry relative="1" as="geometry" />
        </mxCell>
        <mxCell id="lJAiufSAKZCCp05Ln1A2-40" style="edgeStyle=orthogonalEdgeStyle;rounded=0;orthogonalLoop=1;jettySize=auto;html=1;exitX=0;exitY=1;exitDx=0;exitDy=0;" edge="1" parent="1" source="lJAiufSAKZCCp05Ln1A2-29" target="lJAiufSAKZCCp05Ln1A2-35">
          <mxGeometry relative="1" as="geometry" />
        </mxCell>
        <mxCell id="lJAiufSAKZCCp05Ln1A2-29" value="delta=b*b-4*a*c" style="rounded=0;whiteSpace=wrap;html=1;" vertex="1" parent="1">
          <mxGeometry x="160" y="320" width="120" height="50" as="geometry" />
        </mxCell>
        <mxCell id="lJAiufSAKZCCp05Ln1A2-31" value="Sai" style="text;html=1;align=center;verticalAlign=middle;resizable=0;points=[];autosize=1;strokeColor=none;fillColor=none;" vertex="1" parent="1">
          <mxGeometry x="310" y="320" width="40" height="30" as="geometry" />
        </mxCell>
        <mxCell id="lJAiufSAKZCCp05Ln1A2-46" style="edgeStyle=orthogonalEdgeStyle;rounded=0;orthogonalLoop=1;jettySize=auto;html=1;exitX=0.5;exitY=1;exitDx=0;exitDy=0;entryX=0.5;entryY=0;entryDx=0;entryDy=0;" edge="1" parent="1" source="lJAiufSAKZCCp05Ln1A2-35" target="lJAiufSAKZCCp05Ln1A2-41">
          <mxGeometry relative="1" as="geometry" />
        </mxCell>
        <mxCell id="lJAiufSAKZCCp05Ln1A2-35" value="delta=0" style="rhombus;whiteSpace=wrap;html=1;" vertex="1" parent="1">
          <mxGeometry x="30" y="423" width="80" height="67" as="geometry" />
        </mxCell>
        <mxCell id="lJAiufSAKZCCp05Ln1A2-45" style="edgeStyle=orthogonalEdgeStyle;rounded=0;orthogonalLoop=1;jettySize=auto;html=1;exitX=0.5;exitY=1;exitDx=0;exitDy=0;entryX=0.5;entryY=0;entryDx=0;entryDy=0;" edge="1" parent="1" source="lJAiufSAKZCCp05Ln1A2-36" target="lJAiufSAKZCCp05Ln1A2-42">
          <mxGeometry relative="1" as="geometry" />
        </mxCell>
        <mxCell id="lJAiufSAKZCCp05Ln1A2-36" value="delta&amp;gt;0" style="rhombus;whiteSpace=wrap;html=1;" vertex="1" parent="1">
          <mxGeometry x="180" y="423" width="80" height="67" as="geometry" />
        </mxCell>
        <mxCell id="lJAiufSAKZCCp05Ln1A2-37" value="delta&amp;lt;0" style="rhombus;whiteSpace=wrap;html=1;" vertex="1" parent="1">
          <mxGeometry x="320" y="430" width="80" height="60" as="geometry" />
        </mxCell>
        <mxCell id="lJAiufSAKZCCp05Ln1A2-52" style="edgeStyle=orthogonalEdgeStyle;rounded=0;orthogonalLoop=1;jettySize=auto;html=1;exitX=0.5;exitY=1;exitDx=0;exitDy=0;entryX=0;entryY=0;entryDx=0;entryDy=0;" edge="1" parent="1" source="lJAiufSAKZCCp05Ln1A2-41" target="lJAiufSAKZCCp05Ln1A2-25">
          <mxGeometry relative="1" as="geometry" />
        </mxCell>
        <mxCell id="lJAiufSAKZCCp05Ln1A2-41" value="pt có nghiệm kép&lt;br&gt;-b/2*a" style="shape=parallelogram;perimeter=parallelogramPerimeter;whiteSpace=wrap;html=1;fixedSize=1;" vertex="1" parent="1">
          <mxGeometry x="10" y="520" width="120" height="60" as="geometry" />
        </mxCell>
        <mxCell id="lJAiufSAKZCCp05Ln1A2-49" style="edgeStyle=orthogonalEdgeStyle;rounded=0;orthogonalLoop=1;jettySize=auto;html=1;exitX=0.5;exitY=1;exitDx=0;exitDy=0;entryX=0;entryY=0.5;entryDx=0;entryDy=0;" edge="1" parent="1" source="lJAiufSAKZCCp05Ln1A2-42" target="lJAiufSAKZCCp05Ln1A2-25">
          <mxGeometry relative="1" as="geometry" />
        </mxCell>
        <mxCell id="lJAiufSAKZCCp05Ln1A2-42" value="pt có 2 nghiệm&lt;br&gt;&amp;nbsp;phân biệt&lt;br&gt;" style="shape=parallelogram;perimeter=parallelogramPerimeter;whiteSpace=wrap;html=1;fixedSize=1;" vertex="1" parent="1">
          <mxGeometry x="160" y="520" width="120" height="60" as="geometry" />
        </mxCell>
        <mxCell id="lJAiufSAKZCCp05Ln1A2-43" value="vô nghiệm" style="shape=parallelogram;perimeter=parallelogramPerimeter;whiteSpace=wrap;html=1;fixedSize=1;" vertex="1" parent="1">
          <mxGeometry x="290" y="520" width="120" height="60" as="geometry" />
        </mxCell>
        <mxCell id="lJAiufSAKZCCp05Ln1A2-47" style="edgeStyle=orthogonalEdgeStyle;rounded=0;orthogonalLoop=1;jettySize=auto;html=1;exitX=0.5;exitY=1;exitDx=0;exitDy=0;entryX=0.577;entryY=0.01;entryDx=0;entryDy=0;entryPerimeter=0;" edge="1" parent="1" source="lJAiufSAKZCCp05Ln1A2-37" target="lJAiufSAKZCCp05Ln1A2-43">
          <mxGeometry relative="1" as="geometry" />
        </mxCell>
        <mxCell id="lJAiufSAKZCCp05Ln1A2-48" style="edgeStyle=orthogonalEdgeStyle;rounded=0;orthogonalLoop=1;jettySize=auto;html=1;exitX=0.5;exitY=1;exitDx=0;exitDy=0;entryX=0.398;entryY=-0.023;entryDx=0;entryDy=0;entryPerimeter=0;" edge="1" parent="1" source="lJAiufSAKZCCp05Ln1A2-43" target="lJAiufSAKZCCp05Ln1A2-25">
          <mxGeometry relative="1" as="geometry" />
        </mxCell>
        <mxCell id="lJAiufSAKZCCp05Ln1A2-53" value="Kết thúc" style="ellipse;whiteSpace=wrap;html=1;" vertex="1" parent="1">
          <mxGeometry x="425" y="790" width="120" height="80" as="geometry" />
        </mxCell>
      </root>
    </mxGraphModel>
  </diagram>
</mxfile>
